<svg width="125" height="35" viewBox="0 0 125 35" fill="none" xmlns="http://www.w3.org/2000/svg">
<path d="M17.5 23.9583C16.3396 23.9583 15.2268 23.4974 14.4064 22.6769C13.5859 21.8565 13.125 20.7437 13.125 19.5833C13.125 17.95 14.0146 16.5208 15.3125 15.7771L29.4729 7.58125L21.4083 21.5521C20.6791 22.9812 19.2062 23.9583 17.5 23.9583ZM17.5 5C20.1395 5 22.6041 5.72917 24.7479 6.925L21.6854 8.68958C20.4166 8.19375 18.9583 7.91667 17.5 7.91667C14.4058 7.91667 11.4383 9.14583 9.25039 11.3338C7.06246 13.5217 5.8333 16.4891 5.8333 19.5833C5.8333 22.8062 7.13122 25.7229 9.2458 27.8229H9.26038C9.82913 28.3917 9.82913 29.3104 9.26038 29.8792C8.69163 30.4479 7.7583 30.4479 7.18955 29.8937C5.83326 28.5414 4.75757 26.9343 4.02429 25.1649C3.291 23.3955 2.91458 21.4987 2.91663 19.5833C2.91663 15.7156 4.45309 12.0063 7.18799 9.27136C9.9229 6.53645 13.6322 5 17.5 5ZM32.0833 19.5833C32.0833 23.6083 30.45 27.2542 27.8104 29.8937C27.2416 30.4479 26.3229 30.4479 25.7541 29.8792C25.6189 29.7442 25.5117 29.584 25.4385 29.4076C25.3653 29.2312 25.3277 29.042 25.3277 28.851C25.3277 28.66 25.3653 28.4709 25.4385 28.2945C25.5117 28.1181 25.6189 27.9578 25.7541 27.8229C26.8387 26.7428 27.6986 25.4586 28.2843 24.0444C28.87 22.6302 29.1699 21.114 29.1666 19.5833C29.1666 18.125 28.8895 16.6667 28.3791 15.3542L30.1437 12.2917C31.3541 14.4792 32.0833 16.9292 32.0833 19.5833Z" fill="#141414"/>
<path d="M51.552 26.288C50.64 26.288 49.752 26.2 48.888 26.024C48.04 25.864 47.264 25.64 46.56 25.352C45.872 25.064 45.288 24.752 44.808 24.416L46.392 21.416C46.92 21.784 47.48 22.104 48.072 22.376C48.68 22.632 49.312 22.832 49.968 22.976C50.624 23.104 51.28 23.168 51.936 23.168C52.656 23.168 53.272 23.088 53.784 22.928C54.312 22.768 54.712 22.544 54.984 22.256C55.272 21.968 55.416 21.616 55.416 21.2C55.416 20.816 55.264 20.504 54.96 20.264C54.656 20.024 54.256 19.824 53.76 19.664C53.28 19.488 52.744 19.32 52.152 19.16C51.56 19 50.96 18.816 50.352 18.608C49.76 18.384 49.216 18.112 48.72 17.792C48.24 17.456 47.848 17.032 47.544 16.52C47.24 16.008 47.088 15.368 47.088 14.6C47.088 13.448 47.4 12.448 48.024 11.6C48.664 10.752 49.56 10.096 50.712 9.632C51.864 9.152 53.216 8.912 54.768 8.912C55.904 8.912 56.976 9.04 57.984 9.296C58.992 9.536 59.856 9.888 60.576 10.352L59.112 13.328C58.472 12.896 57.76 12.576 56.976 12.368C56.192 12.144 55.384 12.032 54.552 12.032C53.8 12.032 53.152 12.12 52.608 12.296C52.08 12.472 51.672 12.72 51.384 13.04C51.112 13.344 50.976 13.696 50.976 14.096C50.976 14.496 51.12 14.824 51.408 15.08C51.712 15.32 52.112 15.528 52.608 15.704C53.104 15.864 53.648 16.024 54.24 16.184C54.832 16.344 55.424 16.528 56.016 16.736C56.608 16.944 57.152 17.208 57.648 17.528C58.144 17.848 58.544 18.256 58.848 18.752C59.152 19.232 59.304 19.84 59.304 20.576C59.304 21.728 58.984 22.736 58.344 23.6C57.704 24.448 56.8 25.112 55.632 25.592C54.48 26.056 53.12 26.288 51.552 26.288ZM69.0167 26.192C67.9767 26.192 67.0647 25.992 66.2807 25.592C65.5127 25.192 64.9367 24.576 64.5527 23.744C64.1687 22.896 64.0327 21.808 64.1447 20.48C64.2407 18.944 64.5527 17.608 65.0807 16.472C65.6247 15.336 66.3607 14.456 67.2887 13.832C68.2167 13.208 69.3127 12.896 70.5767 12.896C71.5847 12.896 72.5127 13.128 73.3607 13.592C74.2087 14.04 74.8887 14.696 75.4007 15.56C75.9127 16.408 76.1687 17.448 76.1687 18.68C76.1687 19.752 75.9847 20.752 75.6167 21.68C75.2487 22.592 74.7367 23.384 74.0807 24.056C73.4407 24.728 72.6887 25.256 71.8247 25.64C70.9607 26.008 70.0247 26.192 69.0167 26.192ZM59.8247 30.656L63.3287 13.088H66.8807L66.3527 15.656L65.5367 19.496L65.0327 23.336L63.5687 30.656H59.8247ZM68.5847 23.096C69.3367 23.096 69.9927 22.92 70.5527 22.568C71.1127 22.2 71.5527 21.704 71.8727 21.08C72.2087 20.44 72.3767 19.696 72.3767 18.848C72.3767 17.968 72.1207 17.272 71.6087 16.76C71.0967 16.248 70.3687 15.992 69.4247 15.992C68.7047 15.992 68.0567 16.176 67.4807 16.544C66.9047 16.896 66.4567 17.392 66.1367 18.032C65.8167 18.656 65.6567 19.392 65.6567 20.24C65.6567 21.12 65.9127 21.816 66.4247 22.328C66.9367 22.84 67.6567 23.096 68.5847 23.096ZM84.195 26.192C82.851 26.192 81.683 25.952 80.691 25.472C79.715 24.992 78.955 24.32 78.411 23.456C77.867 22.592 77.595 21.576 77.595 20.408C77.595 18.968 77.915 17.688 78.555 16.568C79.211 15.432 80.107 14.536 81.243 13.88C82.395 13.224 83.715 12.896 85.203 12.896C86.467 12.896 87.555 13.136 88.467 13.616C89.379 14.08 90.083 14.736 90.579 15.584C91.091 16.416 91.347 17.416 91.347 18.584C91.347 18.92 91.323 19.256 91.275 19.592C91.243 19.928 91.195 20.248 91.131 20.552H80.451L80.835 18.368H89.379L87.843 19.04C87.971 18.32 87.931 17.72 87.723 17.24C87.515 16.744 87.179 16.368 86.715 16.112C86.251 15.84 85.691 15.704 85.035 15.704C84.219 15.704 83.523 15.904 82.947 16.304C82.387 16.688 81.963 17.224 81.675 17.912C81.387 18.6 81.243 19.376 81.243 20.24C81.243 21.232 81.515 21.976 82.059 22.472C82.619 22.952 83.459 23.192 84.579 23.192C85.235 23.192 85.867 23.088 86.475 22.88C87.083 22.672 87.603 22.376 88.035 21.992L89.595 24.464C88.843 25.056 87.995 25.496 87.051 25.784C86.123 26.056 85.171 26.192 84.195 26.192ZM99.2653 26.192C97.9213 26.192 96.7533 25.952 95.7613 25.472C94.7853 24.992 94.0253 24.32 93.4813 23.456C92.9373 22.592 92.6653 21.576 92.6653 20.408C92.6653 18.968 92.9853 17.688 93.6253 16.568C94.2813 15.432 95.1773 14.536 96.3133 13.88C97.4653 13.224 98.7853 12.896 100.273 12.896C101.537 12.896 102.625 13.136 103.537 13.616C104.449 14.08 105.153 14.736 105.649 15.584C106.161 16.416 106.417 17.416 106.417 18.584C106.417 18.92 106.393 19.256 106.345 19.592C106.313 19.928 106.265 20.248 106.201 20.552H95.5213L95.9053 18.368H104.449L102.913 19.04C103.041 18.32 103.001 17.72 102.793 17.24C102.585 16.744 102.249 16.368 101.785 16.112C101.321 15.84 100.761 15.704 100.105 15.704C99.2893 15.704 98.5933 15.904 98.0173 16.304C97.4573 16.688 97.0333 17.224 96.7453 17.912C96.4573 18.6 96.3133 19.376 96.3133 20.24C96.3133 21.232 96.5853 21.976 97.1293 22.472C97.6893 22.952 98.5293 23.192 99.6493 23.192C100.305 23.192 100.937 23.088 101.545 22.88C102.153 22.672 102.673 22.376 103.105 21.992L104.665 24.464C103.913 25.056 103.065 25.496 102.121 25.784C101.193 26.056 100.241 26.192 99.2653 26.192ZM113.352 26.192C112.36 26.192 111.44 25.968 110.592 25.52C109.744 25.056 109.064 24.392 108.552 23.528C108.04 22.664 107.784 21.624 107.784 20.408C107.784 19.32 107.96 18.32 108.312 17.408C108.68 16.496 109.192 15.704 109.848 15.032C110.504 14.36 111.264 13.84 112.128 13.472C112.992 13.088 113.92 12.896 114.912 12.896C115.92 12.896 116.792 13.072 117.528 13.424C118.264 13.776 118.832 14.32 119.232 15.056C119.648 15.776 119.856 16.688 119.856 17.792C119.856 18.976 119.712 20.08 119.424 21.104C119.152 22.112 118.736 23 118.176 23.768C117.616 24.52 116.928 25.112 116.112 25.544C115.312 25.976 114.392 26.192 113.352 26.192ZM114.504 23.096C115.24 23.096 115.888 22.92 116.448 22.568C117.024 22.2 117.472 21.704 117.792 21.08C118.128 20.44 118.296 19.696 118.296 18.848C118.296 17.968 118.032 17.272 117.504 16.76C116.992 16.248 116.272 15.992 115.344 15.992C114.624 15.992 113.976 16.176 113.4 16.544C112.824 16.896 112.368 17.392 112.032 18.032C111.712 18.656 111.552 19.392 111.552 20.24C111.552 21.12 111.808 21.816 112.32 22.328C112.848 22.84 113.576 23.096 114.504 23.096ZM117.048 26L117.576 23.432L118.392 19.592L118.896 15.752L120.408 8.192H124.152L120.6 26H117.048Z" fill="black"/>
</svg>
