<svg width="37" height="37" viewBox="0 0 37 37" fill="none" xmlns="http://www.w3.org/2000/svg">
<path d="M6.16667 27.75H30.8333C31.6812 27.75 32.375 27.0562 32.375 26.2083C32.375 25.3604 31.6812 24.6667 30.8333 24.6667H6.16667C5.31875 24.6667 4.625 25.3604 4.625 26.2083C4.625 27.0562 5.31875 27.75 6.16667 27.75ZM6.16667 20.0417H30.8333C31.6812 20.0417 32.375 19.3479 32.375 18.5C32.375 17.6521 31.6812 16.9583 30.8333 16.9583H6.16667C5.31875 16.9583 4.625 17.6521 4.625 18.5C4.625 19.3479 5.31875 20.0417 6.16667 20.0417ZM4.625 10.7917C4.625 11.6396 5.31875 12.3333 6.16667 12.3333H30.8333C31.6812 12.3333 32.375 11.6396 32.375 10.7917C32.375 9.94375 31.6812 9.25 30.8333 9.25H6.16667C5.31875 9.25 4.625 9.94375 4.625 10.7917Z" fill="black"/>
</svg>
